{
    "asset" : {
        "generator" : "Khronos glTF Blender I/O v1.2.75",
        "version" : "2.0"
    },
    "scene" : 0,
    "scenes" : [
        {
            "extras" : {
                "namedlayers" : {
                    "layers" : [
                        {
                            "name" : "Layer01"
                        },
                        {
                            "name" : "Layer02"
                        },
                        {
                            "name" : "Layer03"
                        },
                        {
                            "name" : "Layer04"
                        },
                        {
                            "name" : "Layer05"
                        },
                        {
                            "name" : "Layer06"
                        },
                        {
                            "name" : "Layer07"
                        },
                        {
                            "name" : "Layer08"
                        },
                        {
                            "name" : "Layer09"
                        },
                        {
                            "name" : "Layer10"
                        },
                        {
                            "name" : "Layer11"
                        },
                        {
                            "name" : "Layer12"
                        },
                        {
                            "name" : "Layer13"
                        },
                        {
                            "name" : "Layer14"
                        },
                        {
                            "name" : "Layer15"
                        },
                        {
                            "name" : "Layer16"
                        },
                        {
                            "name" : "Layer17"
                        },
                        {
                            "name" : "Layer18"
                        },
                        {
                            "name" : "Layer19"
                        },
                        {
                            "name" : "Layer20"
                        }
                    ],
                    "use_init" : 0
                },
                "ats_settings" : {
                    "num_tiles" : [
                        60,
                        34
                    ],
                    "threads_error" : 0,
                    "prev_engine" : "CYCLES",
                    "prev_device" : "CPU",
                    "prev_border" : 0,
                    "prev_threads" : 8,
                    "prev_choice" : "32",
                    "prev_res" : [
                        1920,
                        1080
                    ],
                    "prev_border_res" : [
                        0,
                        0,
                        1,
                        1
                    ],
                    "prev_actual_tile_size" : [
                        32,
                        32
                    ],
                    "first_run" : 0
                },
                "yabee_settings" : {
                    "opt_tex_proc" : "BAKE",
                    "opt_tbs_proc" : 0,
                    "opt_bake_diffuse" : {
                        "export" : 1,
                        "res_x" : 512,
                        "res_y" : 512
                    },
                    "opt_bake_normal" : {
                        "export" : 0,
                        "res_x" : 512,
                        "res_y" : 512
                    },
                    "opt_bake_gloss" : {
                        "export" : 0,
                        "res_x" : 512,
                        "res_y" : 512
                    },
                    "opt_bake_glow" : {
                        "export" : 0,
                        "res_x" : 512,
                        "res_y" : 512
                    },
                    "opt_bake_AO" : {
                        "export" : 0,
                        "res_x" : 512,
                        "res_y" : 512
                    },
                    "opt_bake_shadow" : {
                        "export" : 0,
                        "res_x" : 512,
                        "res_y" : 512
                    },
                    "opt_export_uv_as_texture" : 0,
                    "opt_copy_tex_files" : 1,
                    "opt_separate_anim_files" : 1,
                    "opt_anim_only" : 0,
                    "opt_tex_path" : "./tex",
                    "opt_autoselect" : 1,
                    "opt_apply_object_transform" : 1,
                    "opt_merge_actor" : 1,
                    "opt_apply_modifiers" : 1,
                    "opt_apply_collide_tag" : 1,
                    "opt_pview" : 0,
                    "opt_use_loop_normals" : 0,
                    "opt_export_pbs" : 0,
                    "opt_force_export_vertex_colors" : 0,
                    "first_run" : 0
                },
                "glTF2ExportSettings" : {
                    "export_apply" : 1,
                    "export_extras" : 1,
                    "export_format" : "GLTF_EMBEDDED"
                }
            },
            "name" : "Scene",
            "nodes" : [
                16
            ]
        }
    ],
    "nodes" : [
        {
            "extras" : {
                "yabee_name" : "M2"
            },
            "name" : "M2",
            "rotation" : [
                -2.980108426697825e-08,
                -2.698762602282301e-10,
                0.007019514683634043,
                0.9999753832817078
            ],
            "translation" : [
                -7.8580342233181e-10,
                0.06245637685060501,
                5.147503756575134e-09
            ]
        },
        {
            "children" : [
                0
            ],
            "extras" : {
                "yabee_name" : "M1"
            },
            "name" : "M1",
            "rotation" : [
                -7.457014561396136e-09,
                6.322866535901639e-11,
                -0.012012732215225697,
                0.9999278783798218
            ],
            "scale" : [
                1,
                1.0000001192092896,
                1.0000001192092896
            ],
            "translation" : [
                -1.9099388737231493e-09,
                0.08779694139957428,
                4.945368003994588e-10
            ]
        },
        {
            "children" : [
                1
            ],
            "extras" : {
                "yabee_name" : "M0"
            },
            "name" : "M0",
            "rotation" : [
                -0.07989385724067688,
                0.0003989488468505442,
                0.004977467469871044,
                0.996790885925293
            ],
            "translation" : [
                -0.021672168746590614,
                0.05770663544535637,
                -0.0033140736632049084
            ]
        },
        {
            "extras" : {
                "yabee_name" : "R2"
            },
            "name" : "R2",
            "rotation" : [
                1.129503246488639e-08,
                -3.147741789444325e-10,
                0.0027444541919976473,
                0.9999962449073792
            ],
            "scale" : [
                1,
                0.9999999403953552,
                1
            ],
            "translation" : [
                -2.648448571562767e-09,
                0.061841413378715515,
                3.375211221623431e-10
            ]
        },
        {
            "children" : [
                3
            ],
            "extras" : {
                "yabee_name" : "R1"
            },
            "name" : "R1",
            "rotation" : [
                1.217533296404838e-10,
                -7.516419708863964e-10,
                0.0028376071713864803,
                0.9999960660934448
            ],
            "translation" : [
                -1.2660166248679161e-09,
                0.08468274772167206,
                -5.8771609801056e-10
            ]
        },
        {
            "children" : [
                4
            ],
            "extras" : {
                "yabee_name" : "R0"
            },
            "name" : "R0",
            "rotation" : [
                -0.0798054188489914,
                -0.003779997816309333,
                -0.047160953283309937,
                0.9956871271133423
            ],
            "scale" : [
                0.9999999403953552,
                1,
                0.9999999403953552
            ],
            "translation" : [
                0.022741304710507393,
                0.04691168665885925,
                -0.0015709656290709972
            ]
        },
        {
            "extras" : {
                "yabee_name" : "I2"
            },
            "name" : "I2",
            "rotation" : [
                1.511454783553745e-08,
                2.1597111252158463e-11,
                -0.005016650538891554,
                0.9999874234199524
            ],
            "scale" : [
                1,
                0.9999998807907104,
                0.9999998807907104
            ],
            "translation" : [
                -1.076841726899147e-09,
                0.05044299736618996,
                -6.006716790629696e-10
            ]
        },
        {
            "children" : [
                6
            ],
            "extras" : {
                "yabee_name" : "I1"
            },
            "name" : "I1",
            "rotation" : [
                7.649545885612952e-09,
                -4.0022599817612914e-11,
                -0.002349220449104905,
                0.9999972581863403
            ],
            "scale" : [
                1,
                1,
                0.9999999403953552
            ],
            "translation" : [
                1.0622898116707802e-09,
                0.08235366642475128,
                4.116454288549676e-09
            ]
        },
        {
            "children" : [
                7
            ],
            "extras" : {
                "yabee_name" : "I0"
            },
            "name" : "I0",
            "rotation" : [
                -0.07979676127433777,
                0.00395860755816102,
                0.049389321357011795,
                0.9955790042877197
            ],
            "scale" : [
                1,
                1,
                0.9999998807907104
            ],
            "translation" : [
                -0.0758509412407875,
                0.045841485261917114,
                -0.0013943039812147617
            ]
        },
        {
            "extras" : {
                "yabee_name" : "T2"
            },
            "name" : "T2",
            "rotation" : [
                -2.708034463339004e-09,
                4.583481649778065e-10,
                -0.0011287019588053226,
                0.999999463558197
            ],
            "scale" : [
                0.9999998211860657,
                0.9999998807907104,
                0.9999998807907104
            ],
            "translation" : [
                2.3283064365386963e-10,
                0.06328309327363968,
                1.0711289633036358e-09
            ]
        },
        {
            "children" : [
                9
            ],
            "extras" : {
                "yabee_name" : "T1"
            },
            "name" : "T1",
            "rotation" : [
                3.318626085047072e-08,
                -4.5406038928774706e-09,
                0.001042101881466806,
                0.999999463558197
            ],
            "translation" : [
                1.4901161193847656e-08,
                0.10537039488554001,
                2.5882629373086274e-09
            ]
        },
        {
            "children" : [
                10
            ],
            "extras" : {
                "yabee_name" : "T0"
            },
            "name" : "T0",
            "rotation" : [
                -0.0672287791967392,
                0.043168097734451294,
                0.5385842323303223,
                0.8387753367424011
            ],
            "scale" : [
                0.9999999403953552,
                0.9999999403953552,
                1
            ],
            "translation" : [
                -0.01532306894659996,
                -0.11118614673614502,
                -0.002672990784049034
            ]
        },
        {
            "extras" : {
                "yabee_name" : "L2"
            },
            "name" : "L2",
            "rotation" : [
                1.1110859787777372e-08,
                -3.0307506504456683e-10,
                -0.0031502849888056517,
                0.9999950528144836
            ],
            "scale" : [
                0.9999999403953552,
                1,
                0.9999998807907104
            ],
            "translation" : [
                -4.94765117764473e-09,
                0.05262802168726921,
                -2.206634874823976e-11
            ]
        },
        {
            "children" : [
                12
            ],
            "extras" : {
                "yabee_name" : "L1"
            },
            "name" : "L1",
            "rotation" : [
                -1.5027158684066677e-10,
                9.306333481617912e-10,
                0.0147461062297225,
                0.9998912811279297
            ],
            "scale" : [
                1,
                0.9999998807907104,
                0.9999998807907104
            ],
            "translation" : [
                4.394678398966789e-09,
                0.06829678267240524,
                9.662303179780452e-10
            ]
        },
        {
            "children" : [
                13
            ],
            "extras" : {
                "yabee_name" : "L0"
            },
            "name" : "L0",
            "rotation" : [
                -0.07939063012599945,
                -0.008962142281234264,
                -0.11181548982858658,
                0.9905120730400085
            ],
            "scale" : [
                0.9999998807907104,
                0.9999999403953552,
                1
            ],
            "translation" : [
                0.06654603034257889,
                0.02709834650158882,
                0.0016343425959348679
            ]
        },
        {
            "extras" : {
                "yabee_name" : "Hand"
            },
            "mesh" : 0,
            "name" : "Hand",
            "skin" : 0
        },
        {
            "children" : [
                15,
                2,
                5,
                8,
                11,
                14
            ],
            "extras" : {
                "yabee_name" : "Armature"
            },
            "name" : "Armature"
        }
    ],
    "meshes" : [
        {
            "extras" : {
                "yabee_name" : "HandEdit"
            },
            "name" : "HandEdit",
            "primitives" : [
                {
                    "attributes" : {
                        "POSITION" : 0,
                        "NORMAL" : 1,
                        "TEXCOORD_0" : 2,
                        "COLOR_0" : 3,
                        "JOINTS_0" : 4,
                        "WEIGHTS_0" : 5
                    },
                    "indices" : 6
                }
            ]
        }
    ],
    "skins" : [
        {
            "inverseBindMatrices" : 7,
            "joints" : [
                2,
                1,
                0,
                5,
                4,
                3,
                8,
                7,
                6,
                11,
                10,
                9,
                14,
                13,
                12
            ],
            "name" : "Armature"
        }
    ],
    "accessors" : [
        {
            "bufferView" : 0,
            "componentType" : 5126,
            "count" : 1483,
            "max" : [
                0.11165666580200195,
                0.2627929449081421,
                0.0955355316400528
            ],
            "min" : [
                -0.25366735458374023,
                -0.2565472424030304,
                -0.05205543339252472
            ],
            "type" : "VEC3"
        },
        {
            "bufferView" : 1,
            "componentType" : 5126,
            "count" : 1483,
            "type" : "VEC3"
        },
        {
            "bufferView" : 2,
            "componentType" : 5126,
            "count" : 1483,
            "type" : "VEC2"
        },
        {
            "bufferView" : 3,
            "componentType" : 5126,
            "count" : 1483,
            "type" : "VEC4"
        },
        {
            "bufferView" : 4,
            "componentType" : 5123,
            "count" : 1483,
            "type" : "VEC4"
        },
        {
            "bufferView" : 5,
            "componentType" : 5126,
            "count" : 1483,
            "type" : "VEC4"
        },
        {
            "bufferView" : 6,
            "componentType" : 5123,
            "count" : 7626,
            "type" : "SCALAR"
        },
        {
            "bufferView" : 7,
            "componentType" : 5126,
            "count" : 15,
            "type" : "MAT4"
        }
    ],
    "bufferViews" : [
        {
            "buffer" : 0,
            "byteLength" : 17796,
            "byteOffset" : 0
        },
        {
            "buffer" : 0,
            "byteLength" : 17796,
            "byteOffset" : 17796
        },
        {
            "buffer" : 0,
            "byteLength" : 11864,
            "byteOffset" : 35592
        },
        {
            "buffer" : 0,
            "byteLength" : 23728,
            "byteOffset" : 47456
        },
        {
            "buffer" : 0,
            "byteLength" : 11864,
            "byteOffset" : 71184
        },
        {
            "buffer" : 0,
            "byteLength" : 23728,
            "byteOffset" : 83048
        },
        {
            "buffer" : 0,
            "byteLength" : 15252,
            "byteOffset" : 106776
        },
        {
            "buffer" : 0,
            "byteLength" : 960,
            "byteOffset" : 122028
        }
    ],
    "buffers" : [
        {
            "byteLength" : 122988,
            "uri" : "data:application/octet-stream;base64,"
        }
    ]
}
